<svg version="1.1" viewBox="0.0 0.0 960.0 720.0" fill="none" stroke="none" stroke-linecap="square" stroke-miterlimit="10" xmlns:xlink="http://www.w3.org/1999/xlink" xmlns="http://www.w3.org/2000/svg"><clipPath id="p.0"><path d="m0 0l960.0 0l0 720.0l-960.0 0l0 -720.0z" clip-rule="nonzero"/></clipPath><g clip-path="url(#p.0)"><path fill="#0b1215" d="m0 0l960.0 0l0 720.0l-960.0 0z" fill-rule="evenodd"/><path fill="#ffffff" d="m406.50995 486.92126l112.566895 0.3779602l0 1.88974l-112.566895 -0.3779297z" fill-rule="evenodd"/><defs><linearGradient id="p.1" gradientUnits="userSpaceOnUse" gradientTransform="matrix(9.36402901373542 0.0 0.0 9.36402901373542 0.0 0.0)" spreadMethod="pad" x1="34.222401829194986" y1="68.13331490778013" x2="43.586430842930405" y2="68.13331490778013"><stop offset="0.0" stop-color="#222222"/><stop offset="1.0" stop-color="#ffffff"/></linearGradient></defs><path fill="url(#p.1)" d="m408.14462 488.14407l-87.68506 149.85825l85.921265 -150.86612z" fill-rule="evenodd"/><path fill="#ffffff" d="m352.05273 390.56625l56.094513 97.60629l-1.6378174 0.94488525l-56.094482 -97.60629z" fill-rule="evenodd"/><path fill="#ffffff" d="m553.48987 236.69534l-112.566895 -0.37794495l0 -1.8897705l112.566895 0.3779602z" fill-rule="evenodd"/><defs><linearGradient id="p.2" gradientUnits="userSpaceOnUse" gradientTransform="matrix(9.364085948203845 0.0 0.0 9.364085948203845 0.0 0.0)" spreadMethod="pad" x1="68.29725208848063" y1="9.144515480320484" x2="58.93316614052284" y2="9.14444759726888"><stop offset="0.0" stop-color="#222222"/><stop offset="1.0" stop-color="#ffffff"/></linearGradient></defs><path fill="url(#p.2)" d="m551.8552 235.47255l87.68506 -149.84253l-85.921265 150.8819z" fill-rule="evenodd"/><path fill="#ffffff" d="m607.9471 333.05035l-56.094482 -97.60629l1.6378174 -0.94488525l56.094482 97.60629z" fill-rule="evenodd"/></g></svg>