<svg version="1.1" viewBox="0.0 0.0 960.0 720.0" fill="none" stroke="none" stroke-linecap="square" stroke-miterlimit="10" xmlns:xlink="http://www.w3.org/1999/xlink" xmlns="http://www.w3.org/2000/svg"><clipPath id="p.0"><path d="m0 0l960.0 0l0 720.0l-960.0 0l0 -720.0z" clip-rule="nonzero"/></clipPath><g clip-path="url(#p.0)"><path fill="#222222" d="m0 0l960.0 0l0 720.0l-960.0 0z" fill-rule="evenodd"/><path fill="#000000" fill-opacity="0.0" d="m390.7034 334.47113l117.13388 0l0 51.055115l-117.13388 0z" fill-rule="evenodd"/><path fill="#ffffff" d="m400.31277 374.19113l5.5 -25.921875l3.484375 0l5.546875 25.921875l-3.421875 0l-1.1875 -6.53125l-5.28125 0l-1.25 6.53125l-3.390625 0zm5.125 -9.125l4.3125 0l-2.171875 -11.671875l-2.140625 11.671875zm19.353302 9.125l0 -25.921875l3.609375 0l0 11.203125l6.65625 0l0 -11.203125l3.625 0l0 25.921875l-3.625 0l0 -12.125l-6.65625 0l0 12.125l-3.609375 0zm25.21756 0l0.484375 -25.921875l3.546875 0l4.578125 21.03125l4.609375 -21.03125l3.515625 0l0.484375 25.921875l-2.921875 0l-0.28125 -18.8125l-4.390625 18.8125l-2.046875 0l-4.34375 -18.8125l-0.296875 18.8125l-2.9375 0zm28.51056 0l0 -25.921875l10.046875 0l0 2.6875l-6.4375 0l0 8.578125l5.21875 0l0 2.5625l-5.21875 0l0 9.5l6.5 0l0 2.59375l-10.109375 0z" fill-rule="nonzero"/><path fill="#f3f3f3" d="m514.3963 347.2244l48.346497 0l0 29.165375l-48.346497 0z" fill-rule="evenodd"/><path fill="#222222" d="m532.0246 368.89896q-1.53125 0 -2.453125 -0.59375q-0.90625 -0.609375 -1.296875 -1.71875q-0.390625 -1.109375 -0.390625 -2.59375l0 -5.734375q0 -1.484375 0.40625 -2.5625q0.40625 -1.078125 1.296875 -1.640625q0.90625 -0.5625 2.4375 -0.5625q1.53125 0 2.421875 0.578125q0.90625 0.578125 1.296875 1.640625q0.40625 1.0625 0.40625 2.546875l0 5.75q0 1.46875 -0.40625 2.578125q-0.390625 1.09375 -1.296875 1.703125q-0.890625 0.609375 -2.421875 0.609375zm0 -1.671875q0.84375 0 1.265625 -0.34375q0.4375 -0.34375 0.578125 -0.96875q0.15625 -0.625 0.15625 -1.453125l0 -6.625q0 -0.84375 -0.15625 -1.453125q-0.140625 -0.609375 -0.578125 -0.921875q-0.421875 -0.328125 -1.265625 -0.328125q-0.828125 0 -1.265625 0.328125q-0.4375 0.3125 -0.59375 0.921875q-0.15625 0.609375 -0.15625 1.453125l0 6.625q0 0.828125 0.15625 1.453125q0.15625 0.625 0.59375 0.96875q0.4375 0.34375 1.265625 0.34375zm14.031128 1.671875q-1.296875 0 -2.171875 -0.5625q-0.859375 -0.5625 -1.3125 -1.546875q-0.453125 -0.984375 -0.515625 -2.296875l1.859375 -0.5q0.0625 0.796875 0.25 1.546875q0.203125 0.75 0.640625 1.21875q0.453125 0.46875 1.25 0.46875q0.828125 0 1.25 -0.453125q0.421875 -0.453125 0.421875 -1.3125q0 -1.03125 -0.46875 -1.65625q-0.46875 -0.625 -1.1875 -1.25l-2.53125 -2.234375q-0.75 -0.65625 -1.109375 -1.421875q-0.34375 -0.78125 -0.34375 -1.921875q0 -1.65625 0.953125 -2.5625q0.953125 -0.921875 2.59375 -0.921875q0.890625 0 1.5625 0.234375q0.6875 0.21875 1.140625 0.703125q0.46875 0.484375 0.734375 1.234375q0.265625 0.734375 0.359375 1.71875l-1.78125 0.484375q-0.0625 -0.75 -0.234375 -1.375q-0.15625 -0.625 -0.578125 -1.0q-0.421875 -0.390625 -1.203125 -0.390625q-0.78125 0 -1.21875 0.421875q-0.4375 0.421875 -0.4375 1.25q0 0.6875 0.21875 1.140625q0.234375 0.4375 0.765625 0.90625l2.546875 2.234375q0.859375 0.75 1.515625 1.796875q0.65625 1.03125 0.65625 2.4375q0 1.125 -0.46875 1.9375q-0.46875 0.8125 -1.28125 1.25q-0.8125 0.421875 -1.875 0.421875z" fill-rule="nonzero"/><path fill="#f3f3f3" d="m514.39703 376.35696l-6.551178 -14.551178l6.551178 -14.551178z" fill-rule="evenodd"/><path fill="#f3f3f3" d="m562.7438 347.2546l6.5511475 14.551178l-6.5511475 14.551178z" fill-rule="evenodd"/></g></svg>