<svg version="1.1" viewBox="0.0 0.0 960.0 720.0" fill="none" stroke="none" stroke-linecap="square" stroke-miterlimit="10" xmlns:xlink="http://www.w3.org/1999/xlink" xmlns="http://www.w3.org/2000/svg"><clipPath id="p.0"><path d="m0 0l960.0 0l0 720.0l-960.0 0l0 -720.0z" clip-rule="nonzero"/></clipPath><g clip-path="url(#p.0)"><path fill="#222222" d="m0 0l960.0 0l0 720.0l-960.0 0z" fill-rule="evenodd"/><path fill="#000000" fill-opacity="0.0" d="m53.909615 238.18889l558.96063 0l0 243.62206l-558.96063 0z" fill-rule="evenodd"/><path fill="#ffffff" d="m101.815865 429.77527l26.250008 -123.671875l16.65625 0l26.40625 123.671875l-16.328125 0l-5.65625 -31.140625l-25.187508 0l-5.953125 31.140625l-16.1875 0zm24.421875 -43.515625l20.609383 0l-10.375 -55.734375l-10.234383 55.734375zm92.384605 43.515625l0 -123.671875l17.25 0l0 53.4375l31.75 0l0 -53.4375l17.265625 0l0 123.671875l-17.265625 0l0 -57.875l-31.75 0l0 57.875l-17.25 0zm120.31064 0l2.296875 -123.671875l16.9375 0l21.84375 100.3125l21.984375 -100.3125l16.796875 0l2.28125 123.671875l-13.890625 0l-1.375 -89.78125l-20.921875 89.78125l-9.765625 0l-20.765625 -89.78125l-1.375 89.78125l-14.046875 0zm136.05176 0l0 -123.671875l47.9375 0l0 12.828125l-30.6875 0l0 40.90625l24.890625 0l0 12.21875l-24.890625 0l0 45.34375l31.0 0l0 12.375l-48.25 0z" fill-rule="nonzero"/><path fill="#f3f3f3" d="m644.13226 299.04404l230.70868 0l0 139.1496l-230.70868 0z" fill-rule="evenodd"/><path fill="#222222" d="m728.2702 401.42444q-7.296875 0 -11.671875 -2.84375q-4.359375 -2.84375 -6.234375 -8.140625q-1.859375 -5.3125 -1.859375 -12.4375l0 -27.34375q0 -7.125 1.90625 -12.234375q1.921875 -5.125 6.234375 -7.84375q4.328125 -2.71875 11.625 -2.71875q7.296875 0 11.578125 2.765625q4.28125 2.765625 6.1875 7.84375q1.921875 5.0625 1.921875 12.1875l0 27.4375q0 7.03125 -1.921875 12.296875q-1.90625 5.25 -6.1875 8.140625q-4.28125 2.890625 -11.578125 2.890625zm0 -7.921875q4.0 0 6.046875 -1.640625q2.0625 -1.65625 2.765625 -4.640625q0.71875 -2.984375 0.71875 -6.984375l0 -31.625q0 -4.0 -0.71875 -6.890625q-0.703125 -2.90625 -2.765625 -4.453125q-2.046875 -1.5625 -6.046875 -1.5625q-4.015625 0 -6.109375 1.5625q-2.078125 1.546875 -2.796875 4.453125q-0.71875 2.890625 -0.71875 6.890625l0 31.625q0 4.0 0.71875 6.984375q0.71875 2.984375 2.796875 4.640625q2.09375 1.640625 6.109375 1.640625zm66.97809 7.921875q-6.234375 0 -10.375 -2.671875q-4.140625 -2.671875 -6.28125 -7.390625q-2.140625 -4.71875 -2.5 -10.953125l8.90625 -2.40625q0.265625 3.828125 1.203125 7.390625q0.9375 3.5625 3.078125 5.84375q2.140625 2.265625 5.96875 2.265625q3.921875 0 5.921875 -2.171875q2.0 -2.1875 2.0 -6.28125q0 -4.90625 -2.234375 -7.890625q-2.21875 -2.984375 -5.609375 -6.015625l-12.109375 -10.6875q-3.5625 -3.109375 -5.25 -6.796875q-1.6875 -3.703125 -1.6875 -9.140625q0 -7.921875 4.53125 -12.28125q4.546875 -4.375 12.390625 -4.375q4.265625 0 7.515625 1.125q3.25 1.109375 5.4375 3.421875q2.1875 2.3125 3.46875 5.828125q1.296875 3.515625 1.734375 8.234375l-8.546875 2.328125q-0.265625 -3.5625 -1.0625 -6.546875q-0.796875 -2.984375 -2.8125 -4.8125q-2.0 -1.828125 -5.734375 -1.828125q-3.75 0 -5.84375 2.015625q-2.09375 2.0 -2.09375 5.90625q0 3.296875 1.109375 5.4375q1.125 2.140625 3.609375 4.359375l12.203125 10.6875q4.109375 3.5625 7.21875 8.515625q3.125 4.9375 3.125 11.703125q0 5.34375 -2.234375 9.21875q-2.21875 3.875 -6.09375 5.921875q-3.875 2.046875 -8.953125 2.046875z" fill-rule="nonzero"/><path fill="#f3f3f3" d="m644.1196 438.0565l-31.24408 -69.433075l31.24408 -69.433075z" fill-rule="evenodd"/><path fill="#f3f3f3" d="m874.8466 299.18805l31.24408 69.433075l-31.24408 69.433075z" fill-rule="evenodd"/></g></svg>